<svg width="171" height="47" viewBox="0 0 171 47" fill="none" xmlns="http://www.w3.org/2000/svg">
<path fill-rule="evenodd" clip-rule="evenodd" d="M17.287 0H5C2.23858 0 0 2.23858 0 5V41.2847C0 44.0461 2.23858 46.2847 5 46.2847H23.6061C26.3675 46.2847 28.6061 44.0461 28.6061 41.2847V11.4318L17.287 0Z" fill="#F2BE22"/>
<path d="M28.9977 11.7106L17.2871 0V6.71058C17.2871 9.472 19.5257 11.7106 22.2871 11.7106H28.9977Z" fill="#FF7A00"/>
<path d="M28.0028 37.0545C25.6473 37.0545 23.4821 36.5073 21.5073 35.4128C19.5563 34.3184 17.9978 32.7956 16.832 30.8446C15.6899 28.8698 15.1189 26.657 15.1189 24.2064C15.1189 21.7557 15.6899 19.5549 16.832 17.6038C17.9978 15.6528 19.5563 14.1301 21.5073 13.0356C23.4821 11.9411 25.6473 11.3939 28.0028 11.3939C30.3583 11.3939 32.5115 11.9411 34.4625 13.0356C36.4374 14.1301 37.9839 15.6528 39.1022 17.6038C40.2442 19.5549 40.8152 21.7557 40.8152 24.2064C40.8152 26.657 40.2442 28.8698 39.1022 30.8446C37.9601 32.7956 36.4136 34.3184 34.4625 35.4128C32.5115 36.5073 30.3583 37.0545 28.0028 37.0545ZM28.0028 31.487C30.0014 31.487 31.5955 30.8208 32.7851 29.4884C33.9986 28.156 34.6053 26.3953 34.6053 24.2064C34.6053 21.9936 33.9986 20.233 32.7851 18.9243C31.5955 17.5919 30.0014 16.9257 28.0028 16.9257C25.9804 16.9257 24.3624 17.58 23.149 18.8887C21.9594 20.1973 21.3645 21.9698 21.3645 24.2064C21.3645 26.4191 21.9594 28.1917 23.149 29.5241C24.3624 30.8327 25.9804 31.487 28.0028 31.487Z" fill="#363636"/>
<path d="M50.3134 19.7095C50.9082 18.7816 51.729 18.0321 52.7759 17.4611C53.8228 16.89 55.0481 16.6045 56.4519 16.6045C58.0936 16.6045 59.5807 17.0209 60.9131 17.8537C62.2455 18.6864 63.2924 19.8761 64.0538 21.4226C64.8389 22.9691 65.2315 24.7655 65.2315 26.8117C65.2315 28.8579 64.8389 30.6661 64.0538 32.2365C63.2924 33.783 62.2455 34.9846 60.9131 35.8411C59.5807 36.6739 58.0936 37.0902 56.4519 37.0902C55.0719 37.0902 53.8466 36.8047 52.7759 36.2337C51.729 35.6627 50.9082 34.9251 50.3134 34.021V46.2981H44.2105V16.89H50.3134V19.7095ZM59.0216 26.8117C59.0216 25.2889 58.5933 24.0993 57.7367 23.2428C56.904 22.3624 55.869 21.9222 54.6318 21.9222C53.4183 21.9222 52.3833 22.3624 51.5268 23.2428C50.694 24.1231 50.2777 25.3246 50.2777 26.8474C50.2777 28.3701 50.694 29.5717 51.5268 30.452C52.3833 31.3324 53.4183 31.7725 54.6318 31.7725C55.8452 31.7725 56.8802 31.3324 57.7367 30.452C58.5933 29.5479 59.0216 28.3344 59.0216 26.8117Z" fill="#363636"/>
<path d="M87.2059 26.5262C87.2059 27.0972 87.1702 27.692 87.0988 28.3106H73.287C73.3822 29.5479 73.7747 30.4996 74.4647 31.1658C75.1785 31.8082 76.047 32.1294 77.0701 32.1294C78.5928 32.1294 79.6516 31.487 80.2464 30.2022H86.7419C86.4088 31.5108 85.8021 32.6885 84.9217 33.7354C84.0652 34.7823 82.9826 35.6032 81.674 36.198C80.3654 36.7928 78.9021 37.0902 77.2842 37.0902C75.3332 37.0902 73.5963 36.6739 72.0736 35.8411C70.5508 35.0084 69.3612 33.8187 68.5046 32.2722C67.6481 30.7256 67.2198 28.9174 67.2198 26.8474C67.2198 24.7774 67.6362 22.9691 68.4689 21.4226C69.3255 19.8761 70.5151 18.6864 72.0379 17.8537C73.5606 17.0209 75.3094 16.6045 77.2842 16.6045C79.2114 16.6045 80.9245 17.009 82.4235 17.818C83.9224 18.6269 85.0883 19.7809 85.921 21.2798C86.7776 22.7788 87.2059 24.5276 87.2059 26.5262ZM80.9602 24.9202C80.9602 23.8733 80.6033 23.0405 79.8895 22.4219C79.1757 21.8033 78.2835 21.494 77.2128 21.494C76.1897 21.494 75.3213 21.7914 74.6075 22.3862C73.9175 22.981 73.4892 23.8257 73.3227 24.9202H80.9602Z" fill="#363636"/>
<path d="M102.56 16.6759C104.892 16.6759 106.747 17.4373 108.127 18.96C109.531 20.459 110.233 22.529 110.233 25.17V36.8047H104.166V25.9908C104.166 24.6584 103.821 23.6234 103.131 22.8859C102.441 22.1483 101.513 21.7795 100.347 21.7795C99.1812 21.7795 98.2533 22.1483 97.5633 22.8859C96.8733 23.6234 96.5283 24.6584 96.5283 25.9908V36.8047H90.4254V16.89H96.5283V19.5311C97.1469 18.6507 97.9797 17.9607 99.0266 17.4611C100.073 16.9376 101.251 16.6759 102.56 16.6759Z" fill="#363636"/>
<path d="M133.568 19.8166C133.568 21.2679 133.235 22.6003 132.568 23.8138C131.902 25.0034 130.879 25.967 129.499 26.7046C128.119 27.4422 126.406 27.811 124.36 27.811H120.577V36.8047H114.474V11.7508H124.36C126.358 11.7508 128.048 12.0958 129.428 12.7858C130.808 13.4758 131.843 14.4275 132.533 15.6409C133.223 16.8544 133.568 18.2462 133.568 19.8166ZM123.896 22.9572C125.062 22.9572 125.93 22.6836 126.501 22.1364C127.072 21.5892 127.358 20.8159 127.358 19.8166C127.358 18.8173 127.072 18.044 126.501 17.4968C125.93 16.9495 125.062 16.6759 123.896 16.6759H120.577V22.9572H123.896Z" fill="#363636"/>
<path d="M135.532 26.8117C135.532 24.7655 135.912 22.9691 136.674 21.4226C137.459 19.8761 138.518 18.6864 139.85 17.8537C141.182 17.0209 142.669 16.6045 144.311 16.6045C145.62 16.6045 146.809 16.8782 147.88 17.4254C148.975 17.9726 149.831 18.7102 150.45 19.6381V10.3946H156.553V36.8047H150.45V33.9496C149.879 34.9013 149.058 35.6627 147.987 36.2337C146.94 36.8047 145.715 37.0902 144.311 37.0902C142.669 37.0902 141.182 36.6739 139.85 35.8411C138.518 34.9846 137.459 33.783 136.674 32.2365C135.912 30.6661 135.532 28.8579 135.532 26.8117ZM150.45 26.8474C150.45 25.3246 150.021 24.1231 149.165 23.2428C148.332 22.3624 147.309 21.9222 146.096 21.9222C144.882 21.9222 143.847 22.3624 142.991 23.2428C142.158 24.0993 141.741 25.2889 141.741 26.8117C141.741 28.3344 142.158 29.5479 142.991 30.452C143.847 31.3324 144.882 31.7725 146.096 31.7725C147.309 31.7725 148.332 31.3324 149.165 30.452C150.021 29.5717 150.45 28.3701 150.45 26.8474Z" fill="#363636"/>
<path d="M170.961 21.9579H167.677V36.8047H161.574V21.9579H159.362V16.89H161.574V16.319C161.574 13.8683 162.276 12.0125 163.68 10.7515C165.084 9.46666 167.142 8.82425 169.854 8.82425C170.306 8.82425 170.64 8.83615 170.854 8.85994V14.0349C169.688 13.9635 168.867 14.1301 168.391 14.5346C167.915 14.939 167.677 15.6647 167.677 16.7116V16.89H170.961V21.9579Z" fill="#363636"/>
</svg>
