<svg width="133" height="123" viewBox="0 0 133 123" fill="none" xmlns="http://www.w3.org/2000/svg">
<path d="M0 59.2401C0 50.4803 1.6067 42.4628 4.8201 35.1877C8.03351 27.9126 12.5323 21.6768 18.3164 16.4803C24.15 11.2343 31.1206 7.17612 39.2282 4.30567C47.3853 1.43522 56.4076 0 66.295 0C76.1329 0 85.1304 1.43522 93.2875 4.30567C101.445 7.17612 108.415 11.2343 114.199 16.4803C120.033 21.6768 124.556 27.9126 127.77 35.1877C130.983 42.4628 132.59 50.4803 132.59 59.2401C132.59 68.0494 130.983 76.1411 127.77 83.5152C124.556 90.8398 120.033 97.1498 114.199 102.445C108.415 107.741 101.445 111.873 93.2875 114.843C85.1304 117.763 76.1329 119.223 66.295 119.223C56.4076 119.223 47.3853 117.763 39.2282 114.843C31.1206 111.873 24.15 107.741 18.3164 102.445C12.5323 97.1498 8.03351 90.8398 4.8201 83.5152C1.6067 76.1411 0 68.0494 0 59.2401ZM23.5073 59.2401C23.5073 65.2284 24.5702 70.6229 26.696 75.4235C28.8712 80.2241 31.8621 84.3318 35.6688 87.7466C39.5248 91.112 44.0483 93.7102 49.2392 95.5414C54.4795 97.3725 60.1648 98.2881 66.295 98.2881C72.4251 98.2881 78.0857 97.3725 83.2766 95.5414C88.5169 93.7102 93.0403 91.112 96.847 87.7466C100.654 84.3318 103.645 80.2241 105.82 75.4235C107.995 70.6229 109.083 65.2284 109.083 59.2401C109.083 53.2518 107.995 47.882 105.82 43.1309C103.645 38.3799 100.654 34.3711 96.847 31.1048C93.0403 27.7889 88.5169 25.2649 83.2766 23.5327C78.0857 21.8006 72.4251 20.9345 66.295 20.9345C60.1648 20.9345 54.4795 21.8006 49.2392 23.5327C44.0483 25.2649 39.5248 27.7889 35.6688 31.1048C31.8621 34.3711 28.8712 38.3799 26.696 43.1309C24.5702 47.882 23.5073 53.2518 23.5073 59.2401Z" fill="#0A142D"/>
<path d="M3.61255 122.836L14.8122 93.5719L33.9601 111.455L3.61255 122.836Z" fill="#0A142D"/>
<circle cx="39.8079" cy="59.5909" r="9.51593" fill="#0A142D"/>
<circle cx="66.5435" cy="59.3759" r="9.51593" fill="#0A142D"/>
<circle cx="93.2784" cy="59.5909" r="9.51593" fill="#0A142D"/>
</svg>
