<svg width="257" height="57" viewBox="0 0 257 57" fill="none" xmlns="http://www.w3.org/2000/svg">
<path d="M242.596 25.0964H238.936V21.074H242.596C242.596 19.6245 242.801 18.3381 243.212 17.2148C243.622 16.0793 244.214 15.1251 244.987 14.352C245.773 13.5669 246.721 12.969 247.832 12.5583C248.955 12.1476 250.218 11.9423 251.619 11.9423C252.597 11.9423 253.558 12.0389 254.5 12.2322C255.442 12.4133 256.275 12.6791 257 13.0294L255.098 17.5409C254.808 17.3718 254.397 17.2148 253.866 17.0698C253.346 16.9249 252.772 16.8524 252.144 16.8524C250.912 16.8524 249.916 17.2027 249.155 17.9033C248.406 18.5918 248.007 19.6487 247.959 21.074H254.717V25.0964H247.959V42.454H242.596V25.0964Z" fill="#131313"/>
<path d="M212.229 31.8546C212.229 30.1515 212.549 28.6175 213.189 27.2525C213.829 25.8755 214.711 24.7038 215.834 23.7375C216.97 22.7591 218.311 22.0102 219.857 21.4908C221.415 20.9593 223.1 20.6936 224.912 20.6936C225.685 20.6936 226.446 20.7419 227.195 20.8385C227.956 20.9352 228.681 21.068 229.369 21.2371C230.07 21.4062 230.722 21.6116 231.326 21.8532C231.942 22.0827 232.485 22.3363 232.957 22.6142V12.3953H238.32V42.454H232.957V40.4429C232.485 40.769 231.93 41.077 231.29 41.3669C230.649 41.6568 229.961 41.9105 229.224 42.1279C228.487 42.3453 227.72 42.5144 226.923 42.6352C226.138 42.7681 225.359 42.8345 224.586 42.8345C222.774 42.8345 221.107 42.5688 219.585 42.0373C218.075 41.5058 216.777 40.7569 215.69 39.7906C214.602 38.8243 213.751 37.6707 213.135 36.3299C212.531 34.9771 212.229 33.4853 212.229 31.8546ZM217.864 31.8546C217.864 32.7123 218.033 33.5216 218.371 34.2825C218.721 35.0435 219.217 35.7139 219.857 36.2937C220.509 36.8614 221.288 37.3144 222.194 37.6526C223.112 37.9787 224.139 38.1418 225.274 38.1418C225.999 38.1418 226.724 38.0754 227.449 37.9425C228.173 37.7975 228.868 37.5982 229.532 37.3446C230.209 37.0909 230.837 36.7829 231.416 36.4205C232.008 36.0582 232.522 35.6535 232.957 35.2066V27.7961C232.413 27.3612 231.839 26.9928 231.235 26.6908C230.631 26.3889 230.015 26.1412 229.387 25.948C228.759 25.7547 228.125 25.6158 227.485 25.5312C226.845 25.4346 226.222 25.3863 225.619 25.3863C224.386 25.3863 223.287 25.5554 222.321 25.8936C221.367 26.2198 220.557 26.6727 219.893 27.2525C219.241 27.8323 218.739 28.5148 218.389 29.2999C218.039 30.0851 217.864 30.9366 217.864 31.8546Z" fill="#131313"/>
<path d="M185.232 14.1346H200.162C202.336 14.1346 204.22 14.3701 205.815 14.8412C207.409 15.3123 208.732 15.9948 209.783 16.8886C210.834 17.7704 211.613 18.8515 212.12 20.1318C212.64 21.4122 212.899 22.8557 212.899 24.4622C212.899 25.9721 212.646 27.3672 212.138 28.6476C211.631 29.928 210.852 31.0392 209.801 31.9814C208.762 32.9115 207.446 33.6423 205.851 34.1738C204.257 34.6932 202.372 34.9529 200.198 34.9529L190.976 34.9347V42.454H185.232V14.1346ZM200.307 29.9702C201.394 29.9702 202.342 29.8434 203.151 29.5897C203.973 29.324 204.655 28.9556 205.199 28.4845C205.755 28.0014 206.165 27.4216 206.431 26.7451C206.709 26.0566 206.848 25.2956 206.848 24.4622C206.848 22.7832 206.298 21.4787 205.199 20.5486C204.112 19.6064 202.481 19.1353 200.307 19.1353H190.976V29.9702H200.307Z" fill="#131313"/>
<path d="M157.036 21.074H162.399V22.8859C163.824 22.0766 165.183 21.5089 166.476 21.1827C167.78 20.8566 169.055 20.6935 170.299 20.6935C171.929 20.6935 173.439 20.9351 174.828 21.4183C176.217 21.8894 177.419 22.596 178.434 23.5382C179.449 24.4803 180.24 25.658 180.807 27.0713C181.387 28.4725 181.677 30.0971 181.677 31.9452V42.454H176.332V32.8149C176.332 31.6432 176.163 30.5984 175.825 29.6804C175.499 28.7503 175.022 27.9712 174.394 27.3431C173.777 26.7029 173.023 26.2197 172.129 25.8936C171.247 25.5554 170.256 25.3863 169.157 25.3863C168.577 25.3863 167.98 25.4467 167.363 25.5674C166.76 25.6882 166.162 25.8634 165.57 26.0929C164.99 26.3103 164.428 26.5881 163.885 26.9263C163.341 27.2525 162.846 27.6269 162.399 28.0497V42.454H157.036V21.074Z" fill="#131313"/>
<path d="M129.641 31.6915C129.641 30.242 129.937 28.859 130.528 27.5424C131.12 26.2137 131.972 25.042 133.083 24.0274C134.194 23.0127 135.553 22.2034 137.16 21.5995C138.778 20.9955 140.614 20.6935 142.668 20.6935C144.709 20.6935 146.545 21.0016 148.176 21.6176C149.819 22.2215 151.208 23.055 152.343 24.118C153.491 25.1809 154.366 26.4311 154.97 27.8685C155.586 29.3059 155.894 30.846 155.894 32.4888C155.894 32.6941 155.888 32.9176 155.876 33.1591C155.876 33.3886 155.864 33.6 155.84 33.7933H135.62C135.849 34.4335 136.218 35.0193 136.725 35.5508C137.244 36.0823 137.891 36.5413 138.664 36.9278C139.437 37.3143 140.331 37.6163 141.345 37.8337C142.36 38.0391 143.483 38.1418 144.715 38.1418C145.947 38.1418 147.173 38.0149 148.393 37.7613C149.613 37.4955 150.779 37.1633 151.89 36.7647L153.702 40.8595C153.002 41.1857 152.289 41.4756 151.564 41.7292C150.851 41.9708 150.103 42.1762 149.317 42.3453C148.544 42.5023 147.729 42.6231 146.871 42.7076C146.026 42.7922 145.132 42.8345 144.19 42.8345C141.786 42.8345 139.678 42.5446 137.866 41.9648C136.055 41.385 134.539 40.5938 133.319 39.5912C132.099 38.5887 131.181 37.411 130.565 36.0581C129.949 34.7053 129.641 33.2497 129.641 31.6915ZM150.205 29.6079C150.012 29.016 149.71 28.4664 149.299 27.9591C148.901 27.4397 148.399 26.9928 147.795 26.6183C147.192 26.2318 146.491 25.9298 145.694 25.7124C144.896 25.495 144.021 25.3863 143.067 25.3863C142.052 25.3863 141.128 25.501 140.294 25.7305C139.461 25.96 138.73 26.268 138.102 26.6546C137.474 27.0411 136.948 27.488 136.526 27.9953C136.115 28.5027 135.813 29.0402 135.62 29.6079H150.205Z" fill="#131313"/>
<path d="M109.493 51.1871H104.13V21.074H109.493V23.0852C109.964 22.7591 110.519 22.451 111.16 22.1611C111.8 21.8713 112.488 21.6176 113.225 21.4002C113.962 21.1827 114.723 21.0136 115.508 20.8928C116.293 20.76 117.078 20.6935 117.864 20.6935C119.675 20.6935 121.336 20.9593 122.846 21.4908C124.368 22.0222 125.673 22.7711 126.76 23.7375C127.847 24.7038 128.692 25.8634 129.296 27.2162C129.912 28.557 130.22 30.0427 130.22 31.6734C130.22 33.3766 129.9 34.9166 129.26 36.2937C128.62 37.6586 127.732 38.8303 126.597 39.8087C125.473 40.775 124.133 41.5239 122.574 42.0554C121.028 42.5748 119.349 42.8345 117.537 42.8345C116.764 42.8345 115.997 42.7862 115.236 42.6895C114.487 42.5929 113.763 42.46 113.062 42.2909C112.374 42.1218 111.721 41.9225 111.105 41.693C110.501 41.4514 109.964 41.1917 109.493 40.9139V51.1871ZM109.493 35.732C110.036 36.1668 110.61 36.5352 111.214 36.8372C111.818 37.1392 112.434 37.3868 113.062 37.5801C113.69 37.7733 114.324 37.9183 114.965 38.0149C115.605 38.0995 116.227 38.1418 116.831 38.1418C118.063 38.1418 119.156 37.9787 120.11 37.6526C121.077 37.3143 121.886 36.8553 122.538 36.2755C123.202 35.6957 123.71 35.0133 124.06 34.2281C124.41 33.443 124.586 32.5914 124.586 31.6734C124.586 30.8158 124.41 30.0065 124.06 29.2455C123.722 28.4845 123.227 27.8202 122.574 27.2525C121.934 26.6727 121.155 26.2197 120.237 25.8936C119.331 25.5554 118.31 25.3863 117.175 25.3863C116.45 25.3863 115.726 25.4587 115.001 25.6037C114.276 25.7366 113.575 25.9298 112.899 26.1835C112.235 26.4371 111.607 26.7452 111.015 27.1075C110.435 27.4699 109.928 27.8745 109.493 28.3215V35.732Z" fill="#131313"/>
<path d="M70.8096 28.2128C70.8096 26.0748 71.2021 24.118 71.9873 22.3424C72.7724 20.5667 73.8716 19.0448 75.2849 17.7765C76.7102 16.4961 78.4133 15.5056 80.3943 14.805C82.3874 14.1044 84.5918 13.7542 87.0076 13.7542C89.4113 13.7542 91.6097 14.1044 93.6028 14.805C95.5958 15.5056 97.299 16.4961 98.7122 17.7765C100.138 19.0448 101.243 20.5667 102.028 22.3424C102.813 24.118 103.206 26.0748 103.206 28.2128C103.206 30.3629 102.813 32.3378 102.028 34.1376C101.243 35.9253 100.138 37.4654 98.7122 38.7578C97.299 40.0503 95.5958 41.0589 93.6028 41.7836C91.6097 42.4963 89.4113 42.8526 87.0076 42.8526C84.5918 42.8526 82.3874 42.4963 80.3943 41.7836C78.4133 41.0589 76.7102 40.0503 75.2849 38.7578C73.8716 37.4654 72.7724 35.9253 71.9873 34.1376C71.2021 32.3378 70.8096 30.3629 70.8096 28.2128ZM76.5532 28.2128C76.5532 29.6744 76.8129 30.991 77.3323 32.1626C77.8637 33.3343 78.5945 34.3369 79.5246 35.1703C80.4668 35.9917 81.572 36.6259 82.8403 37.0728C84.1207 37.5197 85.5098 37.7432 87.0076 37.7432C88.5054 37.7432 89.8885 37.5197 91.1568 37.0728C92.4371 36.6259 93.5424 35.9917 94.4725 35.1703C95.4025 34.3369 96.1333 33.3343 96.6648 32.1626C97.1963 30.991 97.462 29.6744 97.462 28.2128C97.462 26.7512 97.1963 25.4406 96.6648 24.2811C96.1333 23.1215 95.4025 22.1431 94.4725 21.3458C93.5424 20.5365 92.4371 19.9205 91.1568 19.4977C89.8885 19.075 88.5054 18.8636 87.0076 18.8636C85.5098 18.8636 84.1207 19.075 82.8403 19.4977C81.572 19.9205 80.4668 20.5365 79.5246 21.3458C78.5945 22.1431 77.8637 23.1215 77.3323 24.2811C76.8129 25.4406 76.5532 26.7512 76.5532 28.2128Z" fill="#131313"/>
<path d="M0 27.1421C0 23.1286 0.736145 19.4553 2.20844 16.122C3.68073 12.7888 5.74193 9.93171 8.39206 7.55082C11.0648 5.14726 14.2586 3.2879 17.9733 1.97274C21.7106 0.657579 25.8444 0 30.3745 0C34.882 0 39.0044 0.657579 42.7417 1.97274C46.4791 3.2879 49.6728 5.14726 52.3229 7.55082C54.9957 9.93171 57.0682 12.7888 58.5405 16.122C60.0128 19.4553 60.749 23.1286 60.749 27.1421C60.749 31.1783 60.0128 34.8857 58.5405 38.2643C57.0682 41.6202 54.9957 44.5113 52.3229 46.9375C49.6728 49.3638 46.4791 51.2572 42.7417 52.6177C39.0044 53.9555 34.882 54.6244 30.3745 54.6244C25.8444 54.6244 21.7106 53.9555 17.9733 52.6177C14.2586 51.2572 11.0648 49.3638 8.39206 46.9375C5.74193 44.5113 3.68073 41.6202 2.20844 38.2643C0.736145 34.8857 0 31.1783 0 27.1421ZM10.7704 27.1421C10.7704 29.8858 11.2574 32.3574 12.2313 34.5569C13.228 36.7564 14.5983 38.6384 16.3424 40.203C18.1092 41.7449 20.1817 42.9354 22.56 43.7744C24.961 44.6133 27.5658 45.0328 30.3745 45.0328C33.1832 45.0328 35.7767 44.6133 38.155 43.7744C40.5559 42.9354 42.6285 41.7449 44.3726 40.203C46.1167 38.6384 47.487 36.7564 48.4837 34.5569C49.4803 32.3574 49.9786 29.8858 49.9786 27.1421C49.9786 24.3985 49.4803 21.9382 48.4837 19.7614C47.487 17.5846 46.1167 15.7479 44.3726 14.2513C42.6285 12.7321 40.5559 11.5757 38.155 10.782C35.7767 9.9884 33.1832 9.59159 30.3745 9.59159C27.5658 9.59159 24.961 9.9884 22.56 10.782C20.1817 11.5757 18.1092 12.7321 16.3424 14.2513C14.5983 15.7479 13.228 17.5846 12.2313 19.7614C11.2574 21.9382 10.7704 24.3985 10.7704 27.1421Z" fill="#060606"/>
<path d="M1.65515 56.2797L6.78654 42.8719L15.5596 51.0656L1.65515 56.2797Z" fill="#060606"/>
<circle cx="18.239" cy="27.3029" r="4.35993" fill="#060606"/>
<circle cx="30.4884" cy="27.2044" r="4.35993" fill="#060606"/>
<circle cx="42.7376" cy="27.3029" r="4.35993" fill="#060606"/>
</svg>
