<svg width="689" height="123" viewBox="0 0 689 123" fill="none" xmlns="http://www.w3.org/2000/svg">
<path d="M529.486 54.7752H521.498V45.9961H529.486C529.486 42.8324 529.934 40.0247 530.831 37.5729C531.727 35.0947 533.019 33.012 534.706 31.3247C536.42 29.6111 538.489 28.3061 540.915 27.4097C543.367 26.5134 546.122 26.0652 549.18 26.0652C551.315 26.0652 553.411 26.2761 555.468 26.6979C557.524 27.0934 559.343 27.6734 560.925 28.4379L556.773 38.2847C556.14 37.9156 555.243 37.5729 554.083 37.2565C552.95 36.9402 551.698 36.782 550.327 36.782C547.638 36.782 545.463 37.5465 543.802 39.0756C542.167 40.5784 541.297 42.8852 541.192 45.9961H555.942V54.7752H541.192V92.6597H529.486V54.7752Z" fill="black"/>
<path d="M463.208 69.5255C463.208 65.8082 463.907 62.46 465.304 59.481C466.701 56.4755 468.626 53.9182 471.078 51.8091C473.556 49.6737 476.482 48.0391 479.857 46.9055C483.258 45.7455 486.935 45.1655 490.89 45.1655C492.577 45.1655 494.238 45.271 495.873 45.4819C497.533 45.6928 499.115 45.9828 500.618 46.3519C502.147 46.721 503.571 47.1691 504.889 47.6964C506.233 48.1973 507.42 48.751 508.448 49.3573V27.0537H520.153V92.6596H508.448V88.27C507.42 88.9818 506.207 89.6541 504.81 90.2868C503.413 90.9196 501.91 91.4732 500.302 91.9477C498.693 92.4223 497.019 92.7914 495.279 93.055C493.566 93.345 491.865 93.49 490.178 93.49C486.223 93.49 482.585 92.91 479.263 91.75C475.968 90.59 473.134 88.9555 470.761 86.8464C468.388 84.7373 466.53 82.2196 465.185 79.2932C463.867 76.3405 463.208 73.0846 463.208 69.5255ZM475.507 69.5255C475.507 71.3973 475.876 73.1637 476.614 74.8246C477.378 76.4855 478.459 77.9487 479.857 79.2141C481.28 80.4532 482.981 81.4418 484.958 82.18C486.962 82.8918 489.203 83.2477 491.681 83.2477C493.263 83.2477 494.844 83.1027 496.426 82.8127C498.008 82.4964 499.524 82.0614 500.974 81.5077C502.45 80.9541 503.821 80.2818 505.087 79.4909C506.378 78.7 507.499 77.8168 508.448 76.8414V60.6673C507.262 59.7182 506.009 58.9141 504.691 58.255C503.373 57.596 502.028 57.0555 500.658 56.6337C499.287 56.2119 497.903 55.9087 496.505 55.7241C495.108 55.5132 493.75 55.4078 492.432 55.4078C489.743 55.4078 487.344 55.7769 485.235 56.515C483.152 57.2269 481.386 58.2155 479.936 59.481C478.512 60.7464 477.418 62.236 476.653 63.9496C475.889 65.6632 475.507 67.5219 475.507 69.5255Z" fill="black"/>
<path d="M404.285 30.8501H436.871C441.616 30.8501 445.729 31.3642 449.209 32.3924C452.689 33.4205 455.576 34.9101 457.869 36.861C460.163 38.7855 461.863 41.1451 462.971 43.9396C464.104 46.7342 464.671 49.8846 464.671 53.391C464.671 56.6864 464.117 59.7314 463.01 62.526C461.903 65.3205 460.202 67.746 457.909 69.8023C455.641 71.8323 452.768 73.4273 449.288 74.5873C445.808 75.721 441.695 76.2878 436.95 76.2878L416.821 76.2482V92.6596H404.285V30.8501ZM437.187 65.4128C439.56 65.4128 441.629 65.136 443.396 64.5823C445.188 64.0023 446.678 63.1982 447.864 62.1701C449.077 61.1155 449.973 59.8501 450.553 58.3737C451.16 56.871 451.463 55.2101 451.463 53.391C451.463 49.7264 450.263 46.8792 447.864 44.8492C445.491 42.7928 441.932 41.7646 437.187 41.7646H416.821V65.4128H437.187Z" fill="black"/>
<path d="M342.745 45.996H354.45V49.9505C357.561 48.1842 360.527 46.9451 363.348 46.2333C366.195 45.5214 368.976 45.1655 371.692 45.1655C375.251 45.1655 378.546 45.6928 381.578 46.7473C384.61 47.7755 387.233 49.3178 389.448 51.3742C391.662 53.4305 393.389 56.001 394.628 59.0855C395.894 62.1437 396.526 65.6896 396.526 69.7232V92.6596H384.86V71.6214C384.86 69.0641 384.491 66.7837 383.753 64.7801C383.041 62.7501 382 61.0496 380.629 59.6787C379.285 58.2814 377.637 57.2269 375.686 56.5151C373.761 55.7769 371.6 55.4078 369.201 55.4078C367.935 55.4078 366.63 55.5396 365.286 55.8032C363.967 56.0669 362.662 56.4492 361.371 56.9501C360.105 57.4246 358.879 58.031 357.693 58.7692C356.506 59.481 355.426 60.2982 354.45 61.221V92.6596H342.745V45.996Z" fill="black"/>
<path d="M282.952 69.1696C282.952 66.006 283.598 62.9873 284.89 60.1137C286.181 57.2137 288.04 54.6564 290.466 52.4419C292.891 50.2273 295.857 48.461 299.363 47.1428C302.896 45.8246 306.903 45.1655 311.385 45.1655C315.841 45.1655 319.848 45.8378 323.407 47.1823C326.992 48.5005 330.024 50.3196 332.502 52.6396C335.007 54.9596 336.918 57.6882 338.236 60.8255C339.581 63.9628 340.253 67.3241 340.253 70.9096C340.253 71.3578 340.24 71.8455 340.214 72.3728C340.214 72.8737 340.187 73.335 340.135 73.7569H296.002C296.503 75.1541 297.307 76.4328 298.414 77.5928C299.548 78.7528 300.958 79.7546 302.646 80.5982C304.333 81.4419 306.284 82.1009 308.498 82.5755C310.713 83.0237 313.165 83.2478 315.854 83.2478C318.543 83.2478 321.219 82.9709 323.881 82.4173C326.544 81.8373 329.088 81.1123 331.514 80.2423L335.468 89.1796C333.939 89.8914 332.384 90.5241 330.802 91.0778C329.246 91.605 327.612 92.0532 325.898 92.4223C324.211 92.765 322.431 93.0287 320.56 93.2132C318.714 93.3978 316.763 93.49 314.707 93.49C309.461 93.49 304.86 92.8573 300.906 91.5918C296.951 90.3264 293.642 88.5996 290.98 86.4114C288.317 84.2232 286.313 81.6528 284.969 78.7C283.624 75.7473 282.952 72.5705 282.952 69.1696ZM327.836 64.6219C327.414 63.3301 326.755 62.1305 325.859 61.0232C324.989 59.8896 323.895 58.9142 322.576 58.0969C321.258 57.2532 319.729 56.5942 317.989 56.1196C316.249 55.6451 314.338 55.4078 312.255 55.4078C310.041 55.4078 308.024 55.6582 306.205 56.1592C304.386 56.6601 302.791 57.3323 301.42 58.176C300.049 59.0196 298.902 59.9951 297.979 61.1023C297.083 62.2096 296.424 63.3828 296.002 64.6219H327.836Z" fill="black"/>
<path d="M238.977 111.72H227.272V45.996H238.977V50.3855C240.006 49.6737 241.218 49.0014 242.616 48.3687C244.013 47.736 245.516 47.1823 247.124 46.7078C248.732 46.2333 250.393 45.8642 252.106 45.6005C253.82 45.3105 255.534 45.1655 257.247 45.1655C261.202 45.1655 264.827 45.7455 268.122 46.9055C271.444 48.0655 274.291 49.7001 276.664 51.8092C279.037 53.9182 280.882 56.4492 282.201 59.4019C283.545 62.3282 284.217 65.571 284.217 69.13C284.217 72.8473 283.519 76.2087 282.121 79.2141C280.724 82.1932 278.786 84.7505 276.308 86.8859C273.856 88.995 270.93 90.6296 267.529 91.7896C264.155 92.9232 260.49 93.49 256.536 93.49C254.848 93.49 253.174 93.3846 251.513 93.1737C249.879 92.9628 248.297 92.6728 246.768 92.3037C245.265 91.9346 243.842 91.4996 242.497 90.9987C241.179 90.4714 240.006 89.9046 238.977 89.2982V111.72ZM238.977 77.9882C240.164 78.9373 241.416 79.7414 242.734 80.4005C244.052 81.0596 245.397 81.6 246.768 82.0219C248.139 82.4437 249.523 82.76 250.92 82.9709C252.317 83.1555 253.675 83.2478 254.993 83.2478C257.682 83.2478 260.068 82.8919 262.151 82.18C264.26 81.4419 266.026 80.44 267.45 79.1746C268.9 77.9091 270.007 76.4196 270.772 74.706C271.536 72.9923 271.919 71.1337 271.919 69.13C271.919 67.2582 271.536 65.4919 270.772 63.831C270.034 62.1701 268.953 60.7201 267.529 59.481C266.132 58.2155 264.431 57.2269 262.428 56.5151C260.451 55.7769 258.223 55.4078 255.745 55.4078C254.163 55.4078 252.581 55.566 250.999 55.8823C249.417 56.1723 247.888 56.5942 246.412 57.1478C244.962 57.7014 243.591 58.3737 242.299 59.1646C241.034 59.9555 239.927 60.8387 238.977 61.8141V77.9882Z" fill="black"/>
<path d="M154.548 61.577C154.548 56.9107 155.405 52.6398 157.118 48.7643C158.832 44.8889 161.231 41.567 164.316 38.7989C167.426 36.0043 171.144 33.8425 175.467 32.3134C179.817 30.7843 184.629 30.0198 189.901 30.0198C195.148 30.0198 199.946 30.7843 204.296 32.3134C208.646 33.8425 212.363 36.0043 215.448 38.7989C218.559 41.567 220.971 44.8889 222.685 48.7643C224.398 52.6398 225.255 56.9107 225.255 61.577C225.255 66.2697 224.398 70.5802 222.685 74.5084C220.971 78.4102 218.559 81.7715 215.448 84.5925C212.363 87.4134 208.646 89.6147 204.296 91.1965C199.946 92.752 195.148 93.5297 189.901 93.5297C184.629 93.5297 179.817 92.752 175.467 91.1965C171.144 89.6147 167.426 87.4134 164.316 84.5925C161.231 81.7715 158.832 78.4102 157.118 74.5084C155.405 70.5802 154.548 66.2697 154.548 61.577ZM167.084 61.577C167.084 64.767 167.651 67.6406 168.784 70.1979C169.944 72.7552 171.539 74.9434 173.569 76.7625C175.626 78.5552 178.038 79.9393 180.806 80.9147C183.601 81.8902 186.632 82.3779 189.901 82.3779C193.171 82.3779 196.189 81.8902 198.957 80.9147C201.752 79.9393 204.164 78.5552 206.194 76.7625C208.224 74.9434 209.819 72.7552 210.979 70.1979C212.139 67.6406 212.719 64.767 212.719 61.577C212.719 58.387 212.139 55.5266 210.979 52.9957C209.819 50.4648 208.224 48.3293 206.194 46.5893C204.164 44.8229 201.752 43.4784 198.957 42.5557C196.189 41.6329 193.171 41.1716 189.901 41.1716C186.632 41.1716 183.601 41.6329 180.806 42.5557C178.038 43.4784 175.626 44.8229 173.569 46.5893C171.539 48.3293 169.944 50.4648 168.784 52.9957C167.651 55.5266 167.084 58.387 167.084 61.577Z" fill="black"/>
<path d="M0 59.2401C0 50.4803 1.6067 42.4628 4.8201 35.1877C8.03351 27.9126 12.5323 21.6768 18.3164 16.4803C24.15 11.2343 31.1206 7.17612 39.2282 4.30567C47.3853 1.43522 56.4076 0 66.295 0C76.1329 0 85.1304 1.43522 93.2875 4.30567C101.445 7.17612 108.415 11.2343 114.199 16.4803C120.033 21.6768 124.556 27.9126 127.77 35.1877C130.983 42.4628 132.59 50.4803 132.59 59.2401C132.59 68.0494 130.983 76.1411 127.77 83.5152C124.556 90.8398 120.033 97.1498 114.199 102.445C108.415 107.741 101.445 111.873 93.2875 114.843C85.1304 117.763 76.1329 119.223 66.295 119.223C56.4076 119.223 47.3853 117.763 39.2282 114.843C31.1206 111.873 24.15 107.741 18.3164 102.445C12.5323 97.1498 8.03351 90.8398 4.8201 83.5152C1.6067 76.1411 0 68.0494 0 59.2401ZM23.5073 59.2401C23.5073 65.2284 24.5702 70.6229 26.696 75.4235C28.8712 80.2241 31.8621 84.3318 35.6688 87.7466C39.5248 91.112 44.0483 93.7102 49.2392 95.5414C54.4795 97.3725 60.1648 98.2881 66.295 98.2881C72.4251 98.2881 78.0857 97.3725 83.2766 95.5414C88.5169 93.7102 93.0403 91.112 96.847 87.7466C100.654 84.3318 103.645 80.2241 105.82 75.4235C107.995 70.6229 109.083 65.2284 109.083 59.2401C109.083 53.2518 107.995 47.882 105.82 43.1309C103.645 38.3799 100.654 34.3711 96.847 31.1048C93.0403 27.7889 88.5169 25.2649 83.2766 23.5327C78.0857 21.8006 72.4251 20.9345 66.295 20.9345C60.1648 20.9345 54.4795 21.8006 49.2392 23.5327C44.0483 25.2649 39.5248 27.7889 35.6688 31.1048C31.8621 34.3711 28.8712 38.3799 26.696 43.1309C24.5702 47.882 23.5073 53.2518 23.5073 59.2401Z" fill="black"/>
<path d="M3.61267 122.836L14.8124 93.572L33.9602 111.455L3.61267 122.836Z" fill="black"/>
<circle cx="39.808" cy="59.5909" r="9.51593" fill="black"/>
<circle cx="66.5434" cy="59.3758" r="9.51593" fill="black"/>
<circle cx="93.2784" cy="59.5909" r="9.51593" fill="black"/>
<path d="M584.064 71.592C584.96 70.024 586.272 68.744 588 67.752C589.728 66.76 591.696 66.264 593.904 66.264C596.272 66.264 598.4 66.824 600.288 67.944C602.176 69.064 603.664 70.648 604.752 72.696C605.84 74.712 606.384 77.064 606.384 79.752C606.384 82.408 605.84 84.776 604.752 86.856C603.664 88.936 602.16 90.552 600.24 91.704C598.352 92.856 596.24 93.432 593.904 93.432C591.632 93.432 589.632 92.936 587.904 91.944C586.208 90.952 584.928 89.688 584.064 88.152V93H579.696V57.48H584.064V71.592ZM601.92 79.752C601.92 77.768 601.52 76.04 600.72 74.568C599.92 73.096 598.832 71.976 597.456 71.208C596.112 70.44 594.624 70.056 592.992 70.056C591.392 70.056 589.904 70.456 588.528 71.256C587.184 72.024 586.096 73.16 585.264 74.664C584.464 76.136 584.064 77.848 584.064 79.8C584.064 81.784 584.464 83.528 585.264 85.032C586.096 86.504 587.184 87.64 588.528 88.44C589.904 89.208 591.392 89.592 592.992 89.592C594.624 89.592 596.112 89.208 597.456 88.44C598.832 87.64 599.92 86.504 600.72 85.032C601.52 83.528 601.92 81.768 601.92 79.752ZM636.134 78.84C636.134 79.672 636.086 80.552 635.99 81.48H614.966C615.126 84.072 616.006 86.104 617.606 87.576C619.238 89.016 621.206 89.736 623.51 89.736C625.398 89.736 626.966 89.304 628.214 88.44C629.494 87.544 630.39 86.36 630.902 84.888H635.606C634.902 87.416 633.494 89.48 631.382 91.08C629.27 92.648 626.646 93.432 623.51 93.432C621.014 93.432 618.774 92.872 616.79 91.752C614.838 90.632 613.302 89.048 612.182 87C611.062 84.92 610.502 82.52 610.502 79.8C610.502 77.08 611.046 74.696 612.134 72.648C613.222 70.6 614.742 69.032 616.694 67.944C618.678 66.824 620.95 66.264 623.51 66.264C626.006 66.264 628.214 66.808 630.134 67.896C632.054 68.984 633.526 70.488 634.55 72.408C635.606 74.296 636.134 76.44 636.134 78.84ZM631.622 77.928C631.622 76.264 631.254 74.84 630.518 73.656C629.782 72.44 628.774 71.528 627.494 70.92C626.246 70.28 624.854 69.96 623.318 69.96C621.11 69.96 619.222 70.664 617.654 72.072C616.118 73.48 615.238 75.432 615.014 77.928H631.622ZM647.227 70.296V85.8C647.227 87.08 647.499 87.992 648.043 88.536C648.587 89.048 649.531 89.304 650.875 89.304H654.091V93H650.155C647.723 93 645.899 92.44 644.683 91.32C643.467 90.2 642.859 88.36 642.859 85.8V70.296H639.451V66.696H642.859V60.072H647.227V66.696H654.091V70.296H647.227ZM657.752 79.752C657.752 77.064 658.296 74.712 659.384 72.696C660.472 70.648 661.96 69.064 663.848 67.944C665.768 66.824 667.896 66.264 670.232 66.264C672.536 66.264 674.536 66.76 676.232 67.752C677.928 68.744 679.192 69.992 680.024 71.496V66.696H684.44V93H680.024V88.104C679.16 89.64 677.864 90.92 676.136 91.944C674.44 92.936 672.456 93.432 670.184 93.432C667.848 93.432 665.736 92.856 663.848 91.704C661.96 90.552 660.472 88.936 659.384 86.856C658.296 84.776 657.752 82.408 657.752 79.752ZM680.024 79.8C680.024 77.816 679.624 76.088 678.824 74.616C678.024 73.144 676.936 72.024 675.56 71.256C674.216 70.456 672.728 70.056 671.096 70.056C669.464 70.056 667.976 70.44 666.632 71.208C665.288 71.976 664.216 73.096 663.416 74.568C662.616 76.04 662.216 77.768 662.216 79.752C662.216 81.768 662.616 83.528 663.416 85.032C664.216 86.504 665.288 87.64 666.632 88.44C667.976 89.208 669.464 89.592 671.096 89.592C672.728 89.592 674.216 89.208 675.56 88.44C676.936 87.64 678.024 86.504 678.824 85.032C679.624 83.528 680.024 81.784 680.024 79.8Z" fill="black"/>
</svg>
