<svg width="645" height="123" viewBox="0 0 645 123" fill="none" xmlns="http://www.w3.org/2000/svg">
<path d="M0 59.2401C0 50.4803 1.6067 42.4628 4.8201 35.1877C8.03351 27.9126 12.5323 21.6768 18.3164 16.4803C24.15 11.2343 31.1206 7.17612 39.2282 4.30567C47.3853 1.43522 56.4076 0 66.295 0C76.1329 0 85.1304 1.43522 93.2875 4.30567C101.445 7.17612 108.415 11.2343 114.199 16.4803C120.033 21.6768 124.556 27.9126 127.77 35.1877C130.983 42.4628 132.59 50.4803 132.59 59.2401C132.59 68.0494 130.983 76.1411 127.77 83.5152C124.556 90.8398 120.033 97.1498 114.199 102.445C108.415 107.741 101.445 111.873 93.2875 114.843C85.1304 117.763 76.1329 119.223 66.295 119.223C56.4076 119.223 47.3853 117.763 39.2282 114.843C31.1206 111.873 24.15 107.741 18.3164 102.445C12.5323 97.1498 8.03351 90.8398 4.8201 83.5152C1.6067 76.1411 0 68.0494 0 59.2401ZM23.5073 59.2401C23.5073 65.2284 24.5702 70.6229 26.696 75.4235C28.8712 80.2241 31.8621 84.3318 35.6688 87.7466C39.5248 91.112 44.0483 93.7102 49.2392 95.5414C54.4795 97.3725 60.1648 98.2881 66.295 98.2881C72.4251 98.2881 78.0857 97.3725 83.2766 95.5414C88.5169 93.7102 93.0403 91.112 96.847 87.7466C100.654 84.3318 103.645 80.2241 105.82 75.4235C107.995 70.6229 109.083 65.2284 109.083 59.2401C109.083 53.2518 107.995 47.882 105.82 43.1309C103.645 38.3799 100.654 34.3711 96.847 31.1048C93.0403 27.7889 88.5169 25.2649 83.2766 23.5327C78.0857 21.8006 72.4251 20.9345 66.295 20.9345C60.1648 20.9345 54.4795 21.8006 49.2392 23.5327C44.0483 25.2649 39.5248 27.7889 35.6688 31.1048C31.8621 34.3711 28.8712 38.3799 26.696 43.1309C24.5702 47.882 23.5073 53.2518 23.5073 59.2401Z" fill="black"/>
<path d="M3.61267 122.836L14.8124 93.572L33.9602 111.455L3.61267 122.836Z" fill="black"/>
<circle cx="39.808" cy="59.5909" r="9.51593" fill="black"/>
<circle cx="66.5434" cy="59.3758" r="9.51593" fill="black"/>
<circle cx="93.2784" cy="59.5909" r="9.51593" fill="black"/>
<path d="M632.662 34.6799H645V95.1333H632.662V34.6799Z" fill="black"/>
<path d="M590.495 34.6799H603.491L632.731 95.1333H619.851L615.017 84.9611H579.704L575.024 95.1333H562.105L590.495 34.6799ZM610.182 74.8662L597.109 47.4049L584.384 74.8662H610.182Z" fill="black"/>
<path d="M534.676 58.0801H526.863V49.4936H534.676C534.676 46.3994 535.115 43.6533 535.991 41.2552C536.868 38.8314 538.131 36.7944 539.782 35.1441C541.458 33.4681 543.482 32.1917 545.854 31.315C548.252 30.4383 550.947 30 553.938 30C556.026 30 558.076 30.2063 560.088 30.6188C562.099 31.0056 563.878 31.5729 565.425 32.3207L561.364 41.9514C560.745 41.5904 559.868 41.2552 558.734 40.9458C557.625 40.6364 556.4 40.4817 555.059 40.4817C552.429 40.4817 550.302 41.2295 548.678 42.725C547.079 44.1948 546.228 46.451 546.125 49.4936H560.552V58.0801H546.125V95.1334H534.676V58.0801Z" fill="black"/>
<path d="M467.872 72.5068C467.872 68.871 468.555 65.5963 469.922 62.6826C471.288 59.7431 473.17 57.2419 475.568 55.1791C477.992 53.0905 480.854 51.4918 484.155 50.3831C487.481 49.2485 491.078 48.6812 494.946 48.6812C496.596 48.6812 498.221 48.7844 499.819 48.9907C501.444 49.1969 502.991 49.4806 504.461 49.8416C505.956 50.2026 507.349 50.6409 508.638 51.1566C509.953 51.6465 511.113 52.188 512.119 52.7811V30.9668H523.568V95.1333H512.119V90.84C511.113 91.5362 509.927 92.1938 508.561 92.8126C507.194 93.4314 505.724 93.9729 504.151 94.4371C502.578 94.9012 500.941 95.2622 499.239 95.52C497.563 95.8037 495.9 95.9455 494.25 95.9455C490.382 95.9455 486.824 95.3782 483.575 94.2437C480.352 93.1091 477.58 91.5104 475.259 89.4476C472.938 87.3848 471.121 84.9223 469.805 82.0602C468.516 79.1722 467.872 75.9878 467.872 72.5068ZM479.9 72.5068C479.9 74.3375 480.261 76.0651 480.983 77.6896C481.731 79.314 482.788 80.7451 484.155 81.9828C485.547 83.1947 487.21 84.1617 489.144 84.8837C491.104 85.5799 493.296 85.928 495.72 85.928C497.267 85.928 498.814 85.7861 500.361 85.5025C501.908 85.1931 503.391 84.7676 504.809 84.2261C506.253 83.6846 507.594 83.0271 508.831 82.2536C510.095 81.48 511.191 80.6162 512.119 79.6621V63.8429C510.959 62.9147 509.734 62.1282 508.445 61.4836C507.155 60.839 505.84 60.3104 504.499 59.8978C503.159 59.4852 501.805 59.1887 500.438 59.0082C499.072 58.8019 497.744 58.6988 496.454 58.6988C493.824 58.6988 491.478 59.0598 489.415 59.7818C487.378 60.478 485.65 61.4449 484.232 62.6826C482.84 63.9203 481.77 65.3771 481.022 67.0532C480.274 68.7292 479.9 70.5471 479.9 72.5068Z" fill="black"/>
<path d="M408.261 34.6799H440.132C444.773 34.6799 448.796 35.1827 452.199 36.1884C455.603 37.194 458.427 38.6509 460.67 40.559C462.913 42.4413 464.576 44.7491 465.659 47.4823C466.768 50.2155 467.322 53.2968 467.322 56.7263C467.322 59.9494 466.781 62.9276 465.698 65.6608C464.615 68.3941 462.952 70.7663 460.709 72.7776C458.491 74.763 455.68 76.323 452.277 77.4576C448.873 78.5663 444.851 79.1207 440.209 79.1207L420.522 79.082V95.1333H408.261V34.6799ZM440.441 68.4843C442.762 68.4843 444.786 68.2136 446.514 67.6721C448.267 67.1048 449.724 66.3184 450.884 65.3127C452.071 64.2813 452.947 63.0437 453.515 61.5997C454.108 60.1299 454.404 58.5055 454.404 56.7263C454.404 53.1421 453.231 50.3573 450.884 48.3719C448.564 46.3606 445.083 45.355 440.441 45.355H420.522V68.4843H440.441Z" fill="black"/>
<path d="M349.071 49.4936H360.52V53.3614C363.562 51.6338 366.463 50.4219 369.222 49.7257C372.007 49.0295 374.727 48.6814 377.383 48.6814C380.864 48.6814 384.087 49.1971 387.053 50.2285C390.018 51.2341 392.584 52.7426 394.75 54.7538C396.915 56.7651 398.604 59.2791 399.816 62.296C401.054 65.2871 401.673 68.7552 401.673 72.7003V95.1334H390.263V74.5568C390.263 72.0557 389.902 69.8253 389.18 67.8656C388.484 65.8801 387.465 64.217 386.124 62.8761C384.809 61.5095 383.198 60.4781 381.29 59.7819C379.407 59.0599 377.293 58.6989 374.946 58.6989C373.709 58.6989 372.432 58.8279 371.117 59.0857C369.828 59.3436 368.552 59.7175 367.288 60.2074C366.051 60.6715 364.852 61.2646 363.691 61.9866C362.531 62.6828 361.474 63.4821 360.52 64.3846V95.1334H349.071V49.4936Z" fill="black"/>
<path d="M288.61 72.1588C288.61 69.0646 289.242 66.1122 290.505 63.3016C291.769 60.4652 293.586 57.9641 295.959 55.7981C298.331 53.6322 301.232 51.9045 304.661 50.6153C308.116 49.326 312.036 48.6814 316.419 48.6814C320.777 48.6814 324.696 49.3389 328.177 50.654C331.684 51.9432 334.649 53.7224 337.073 55.9915C339.523 58.2606 341.392 60.9294 342.681 63.9978C343.996 67.0662 344.654 70.3539 344.654 73.8606C344.654 74.299 344.641 74.776 344.615 75.2917C344.615 75.7816 344.59 76.2329 344.538 76.6454H301.374C301.863 78.0121 302.65 79.2626 303.733 80.3972C304.842 81.5317 306.221 82.5116 307.871 83.3367C309.522 84.1618 311.43 84.8065 313.596 85.2706C315.762 85.7089 318.16 85.9281 320.79 85.9281C323.42 85.9281 326.037 85.6574 328.641 85.1159C331.246 84.5486 333.734 83.8395 336.106 82.9886L339.974 91.7298C338.478 92.426 336.957 93.0448 335.41 93.5863C333.889 94.102 332.29 94.5404 330.614 94.9014C328.964 95.2366 327.223 95.4944 325.392 95.6749C323.587 95.8554 321.679 95.9457 319.668 95.9457C314.537 95.9457 310.037 95.3268 306.17 94.0891C302.302 92.8514 299.066 91.1625 296.461 89.0223C293.857 86.8822 291.897 84.3681 290.582 81.4802C289.267 78.5922 288.61 75.4851 288.61 72.1588ZM332.509 67.7109C332.097 66.4474 331.452 65.2742 330.575 64.1912C329.724 63.0824 328.654 62.1284 327.365 61.329C326.076 60.5039 324.58 59.8593 322.878 59.3951C321.177 58.931 319.307 58.6989 317.27 58.6989C315.104 58.6989 313.132 58.9439 311.352 59.4338C309.573 59.9237 308.013 60.5813 306.672 61.4064C305.332 62.2315 304.21 63.1856 303.307 64.2686C302.431 65.3515 301.786 66.499 301.374 67.7109H332.509Z" fill="black"/>
<path d="M243.62 113.776H232.171V49.4936H243.62V53.7869C244.626 53.0907 245.812 52.4331 247.178 51.8143C248.545 51.1955 250.015 50.654 251.588 50.1898C253.161 49.7257 254.785 49.3647 256.461 49.1069C258.137 48.8232 259.813 48.6814 261.489 48.6814C265.357 48.6814 268.902 49.2487 272.126 50.3832C275.374 51.5178 278.159 53.1165 280.48 55.1793C282.801 57.2421 284.606 59.7175 285.895 62.6054C287.21 65.4676 287.867 68.6391 287.867 72.1201C287.867 75.7559 287.184 79.0435 285.817 81.983C284.451 84.8967 282.556 87.3979 280.132 89.4865C277.734 91.5493 274.872 93.148 271.545 94.2825C268.245 95.3913 264.661 95.9457 260.793 95.9457C259.143 95.9457 257.505 95.8425 255.881 95.6362C254.282 95.43 252.735 95.1463 251.24 94.7853C249.77 94.4243 248.377 93.9989 247.062 93.509C245.773 92.9933 244.626 92.4389 243.62 91.8458V113.776ZM243.62 80.784C244.78 81.7122 246.005 82.4987 247.294 83.1433C248.584 83.7879 249.899 84.3165 251.24 84.7291C252.58 85.1417 253.934 85.4511 255.301 85.6574C256.667 85.8379 257.995 85.9281 259.285 85.9281C261.915 85.9281 264.248 85.58 266.285 84.8838C268.348 84.1618 270.076 83.182 271.468 81.9443C272.886 80.7066 273.969 79.2497 274.717 77.5737C275.465 75.8977 275.839 74.0798 275.839 72.1201C275.839 70.2894 275.465 68.5618 274.717 66.9373C273.995 65.3128 272.938 63.8947 271.545 62.6828C270.179 61.4451 268.516 60.4781 266.556 59.7819C264.622 59.0599 262.443 58.6989 260.019 58.6989C258.472 58.6989 256.925 58.8537 255.378 59.1631C253.831 59.4467 252.335 59.8593 250.891 60.4008C249.473 60.9423 248.132 61.5998 246.869 62.3733C245.631 63.1469 244.548 64.0107 243.62 64.9647V80.784Z" fill="black"/>
<path d="M159.062 64.7326C159.062 60.1686 159.901 55.9914 161.577 52.201C163.253 48.4105 165.599 45.1616 168.616 42.4541C171.659 39.7209 175.294 37.6065 179.523 36.111C183.778 34.6154 188.483 33.8677 193.64 33.8677C198.772 33.8677 203.465 34.6154 207.719 36.111C211.974 37.6065 215.609 39.7209 218.626 42.4541C221.669 45.1616 224.028 48.4105 225.704 52.201C227.38 55.9914 228.218 60.1686 228.218 64.7326C228.218 69.3223 227.38 73.5382 225.704 77.3802C224.028 81.1964 221.669 84.484 218.626 87.243C215.609 90.0021 211.974 92.1551 207.719 93.7022C203.465 95.2236 198.772 95.9842 193.64 95.9842C188.483 95.9842 183.778 95.2236 179.523 93.7022C175.294 92.1551 171.659 90.0021 168.616 87.243C165.599 84.484 163.253 81.1964 161.577 77.3802C159.901 73.5382 159.062 69.3223 159.062 64.7326ZM171.323 64.7326C171.323 67.8526 171.878 70.6632 172.987 73.1643C174.121 75.6655 175.681 77.8057 177.667 79.5848C179.678 81.3382 182.037 82.692 184.745 83.646C187.478 84.6001 190.443 85.0771 193.64 85.0771C196.838 85.0771 199.79 84.6001 202.498 83.646C205.231 82.692 207.59 81.3382 209.576 79.5848C211.561 77.8057 213.121 75.6655 214.256 73.1643C215.39 70.6632 215.958 67.8526 215.958 64.7326C215.958 61.6126 215.39 58.8149 214.256 56.3395C213.121 53.8641 211.561 51.7755 209.576 50.0737C207.59 48.3461 205.231 47.031 202.498 46.1285C199.79 45.2261 196.838 44.7748 193.64 44.7748C190.443 44.7748 187.478 45.2261 184.745 46.1285C182.037 47.031 179.678 48.3461 177.667 50.0737C175.681 51.7755 174.121 53.8641 172.987 56.3395C171.878 58.8149 171.323 61.6126 171.323 64.7326Z" fill="black"/>
</svg>
