<svg width="3942" height="2529" viewBox="0 0 3942 2529" fill="none" xmlns="http://www.w3.org/2000/svg">
<g opacity="0.4" filter="url(#filter0_f_146_8)">
<path d="M2596.76 1116.17C2518.67 993.255 2422.41 1084.95 2301.54 1107.59C2227.74 1099 2103.66 1015.5 2134.68 873.852C2165.7 732.206 2414.92 873.852 2596.76 926.14C2778.59 978.428 2899.46 919.116 3182.9 873.852C3466.35 828.588 3529.46 1093.54 3311.26 1062.32C3093.06 1031.11 3078.08 1186.8 2950.8 1256.26C2823.51 1325.71 2674.84 1239.09 2596.76 1116.17Z" fill="#41F1DA"/>
<path d="M1200.93 1781.46C1083.72 1596.82 939.223 1734.56 757.795 1768.56C647.011 1755.67 460.767 1630.23 507.328 1417.45C553.889 1204.68 927.984 1417.45 1200.93 1496C1473.87 1574.54 1655.3 1485.45 2080.77 1417.45C2506.25 1349.46 2600.98 1747.46 2273.44 1700.57C1945.91 1653.67 1923.43 1887.55 1732.37 1991.89C1541.31 2096.22 1318.13 1966.1 1200.93 1781.46Z" fill="#99DBF5"/>
<path d="M1846.88 1140.71C1604.5 1061.64 1396.94 1061.14 1103.02 1188.34C956.758 1243.42 435.779 1205.07 714.377 996.774C992.975 788.478 673.98 706.377 981.832 560.925C1289.68 415.473 2195.13 568.02 1891.46 630.863C1587.78 693.707 2483.48 963.832 2438.9 1091.04C2394.33 1218.25 2089.26 1219.77 1846.88 1140.71Z" fill="#F2BE22"/>
<path d="M1666.98 1481.28C1480.32 1540.07 1980.4 1595.31 2055.62 1656.12C2082.55 1692.28 2199.1 1781.81 2449.84 1850.73C2763.26 1936.89 2864.95 1733.16 2849.63 1716.43C2834.3 1699.71 2697.79 1458.98 2793.91 1253.22C2890.02 1047.46 2495.81 1137.16 2167.06 1116.89C1838.31 1096.61 1803.49 1223.32 1899.61 1271.46C1995.72 1319.61 1853.64 1422.49 1666.98 1481.28Z" fill="#99DBF5"/>
<path d="M1070.74 1503.04C1148.74 1555.24 1324.26 1591.22 1505.35 1567.4C1788.59 1540.54 2371.23 1442.63 2435.87 1265.86C2516.66 1044.89 1803.45 973.432 1505.35 989.65C1207.25 1005.87 1612.61 1183.25 1334.01 1249.13C1055.41 1315.02 968.493 1434.62 1070.74 1503.04Z" fill="#F2BE22"/>
</g>
<defs>
<filter id="filter0_f_146_8" x="0" y="-0.000162125" width="3942" height="2529" filterUnits="userSpaceOnUse" color-interpolation-filters="sRGB">
<feFlood flood-opacity="0" result="BackgroundImageFix"/>
<feBlend mode="normal" in="SourceGraphic" in2="BackgroundImageFix" result="shape"/>
<feGaussianBlur stdDeviation="250" result="effect1_foregroundBlur_146_8"/>
</filter>
</defs>
</svg>
