<svg width="549" height="102" viewBox="0 0 549 102" fill="none" xmlns="http://www.w3.org/2000/svg">
<path d="M496.392 0H549L512.832 101.164H460.224L496.392 0Z" fill="#81FF9D"/>
<path d="M449.611 22.8171H460.545V76.389H449.611V22.8171Z" fill="white"/>
<path d="M410.139 22.8171H421.655L447.567 76.389H436.154L431.869 67.3747H400.576L396.429 76.389H384.981L410.139 22.8171ZM427.585 58.4289L416 34.0936L404.723 58.4289H427.585Z" fill="white"/>
<path d="M346.378 43.5535H339.454V35.9444H346.378C346.378 33.2024 346.766 30.7689 347.543 28.6438C348.32 26.4959 349.44 24.6908 350.902 23.2284C352.387 21.7431 354.181 20.6121 356.283 19.8352C358.408 19.0582 360.796 18.6698 363.447 18.6698C365.298 18.6698 367.114 18.8526 368.896 19.2182C370.679 19.561 372.255 20.0637 373.626 20.7263L370.028 29.2608C369.479 28.9409 368.702 28.6438 367.697 28.3696C366.714 28.0954 365.629 27.9583 364.441 27.9583C362.11 27.9583 360.225 28.621 358.785 29.9463C357.369 31.2487 356.615 33.2481 356.523 35.9444H369.308V43.5535H356.523V76.3889H346.378V43.5535Z" fill="white"/>
<path d="M285.072 56.338C285.072 53.1162 285.678 50.2142 286.889 47.6322C288.1 45.0273 289.768 42.8108 291.893 40.9828C294.041 39.132 296.577 37.7153 299.502 36.7327C302.45 35.7273 305.637 35.2246 309.065 35.2246C310.527 35.2246 311.967 35.316 313.383 35.4988C314.823 35.6816 316.194 35.933 317.496 36.2529C318.822 36.5728 320.055 36.9612 321.198 37.4182C322.363 37.8524 323.392 38.3322 324.283 38.8578V19.5267H334.428V76.3889H324.283V72.5844C323.392 73.2013 322.34 73.784 321.129 74.3324C319.918 74.8808 318.616 75.3607 317.222 75.772C315.828 76.1833 314.377 76.5032 312.869 76.7317C311.384 76.983 309.91 77.1087 308.448 77.1087C305.02 77.1087 301.867 76.606 298.988 75.6006C296.132 74.5952 293.675 73.1785 291.619 71.3505C289.562 69.5225 287.951 67.3403 286.786 64.804C285.643 62.2448 285.072 59.4228 285.072 56.338ZM295.732 56.338C295.732 57.9604 296.052 59.4913 296.691 60.9309C297.354 62.3704 298.291 63.6386 299.502 64.7354C300.736 65.8094 302.21 66.6662 303.923 67.306C305.66 67.923 307.602 68.2315 309.75 68.2315C311.121 68.2315 312.492 68.1058 313.863 67.8544C315.234 67.5802 316.548 67.2032 317.805 66.7234C319.084 66.2435 320.273 65.6608 321.369 64.9753C322.489 64.2898 323.46 63.5244 324.283 62.6789V48.6604C323.254 47.8378 322.169 47.1409 321.027 46.5697C319.884 45.9984 318.719 45.53 317.531 45.1644C316.342 44.7988 315.143 44.536 313.932 44.3761C312.721 44.1933 311.544 44.1019 310.401 44.1019C308.071 44.1019 305.991 44.4218 304.163 45.0616C302.358 45.6785 300.827 46.5354 299.57 47.6322C298.337 48.729 297.388 50.02 296.726 51.5053C296.063 52.9905 295.732 54.6014 295.732 56.338Z" fill="white"/>
<path d="M230.142 22.8171H258.384C262.497 22.8171 266.062 23.2627 269.078 24.1539C272.094 25.045 274.596 26.336 276.584 28.0269C278.572 29.695 280.046 31.7401 281.006 34.1622C281.988 36.5843 282.48 39.3148 282.48 42.3539C282.48 45.2101 282 47.8493 281.04 50.2714C280.08 52.6935 278.606 54.7957 276.619 56.578C274.653 58.3375 272.163 59.7199 269.147 60.7253C266.13 61.7079 262.566 62.1991 258.453 62.1991L241.007 62.1649V76.389H230.142V22.8171ZM258.658 52.7735C260.715 52.7735 262.509 52.5336 264.04 52.0537C265.593 51.551 266.884 50.8541 267.913 49.963C268.964 49.049 269.741 47.9522 270.243 46.6726C270.769 45.3701 271.032 43.9305 271.032 42.3539C271.032 39.1777 269.992 36.7099 267.913 34.9505C265.856 33.1682 262.771 32.277 258.658 32.277H241.007V52.7735H258.658Z" fill="white"/>
<path d="M174.697 35.9444H184.842V39.3719C187.539 37.841 190.109 36.767 192.554 36.1501C195.022 35.5331 197.433 35.2247 199.786 35.2247C202.871 35.2247 205.727 35.6817 208.355 36.5957C210.983 37.4868 213.256 38.8235 215.176 40.6058C217.095 42.3881 218.592 44.616 219.666 47.2895C220.763 49.9401 221.311 53.0134 221.311 56.5095V76.389H211.2V58.1547C211.2 55.9382 210.88 53.9617 210.24 52.2251C209.623 50.4656 208.721 48.9918 207.532 47.8036C206.367 46.5926 204.939 45.6785 203.248 45.0616C201.58 44.4218 199.706 44.1019 197.627 44.1019C196.53 44.1019 195.399 44.2161 194.234 44.4446C193.091 44.6732 191.96 45.0045 190.841 45.4386C189.744 45.8499 188.681 46.3755 187.653 47.0153C186.625 47.6322 185.688 48.3406 184.842 49.1403V76.389H174.697V35.9444Z" fill="white"/>
<path d="M119.012 56.0296C119.012 53.2876 119.572 50.6713 120.692 48.1806C121.812 45.6671 123.422 43.4507 125.525 41.5313C127.627 39.6119 130.198 38.0809 133.237 36.9384C136.298 35.7959 139.772 35.2247 143.656 35.2247C147.518 35.2247 150.991 35.8073 154.076 36.9727C157.183 38.1152 159.811 39.6918 161.959 41.7026C164.13 43.7134 165.786 46.0784 166.929 48.7976C168.094 51.5167 168.677 54.4301 168.677 57.5377C168.677 57.9262 168.665 58.3489 168.643 58.8059C168.643 59.24 168.62 59.6399 168.574 60.0055H130.323C130.757 61.2166 131.454 62.3248 132.414 63.3302C133.397 64.3356 134.619 65.2039 136.081 65.9351C137.544 66.6663 139.235 67.2375 141.154 67.6488C143.073 68.0373 145.199 68.2315 147.529 68.2315C149.86 68.2315 152.179 67.9916 154.487 67.5117C156.795 67.009 159 66.3807 161.102 65.6266L164.53 73.3728C163.204 73.9897 161.856 74.5381 160.485 75.018C159.137 75.475 157.72 75.8634 156.235 76.1833C154.773 76.4804 153.23 76.7089 151.608 76.8688C150.008 77.0288 148.318 77.1087 146.535 77.1087C141.988 77.1087 138.001 76.5603 134.573 75.4635C131.146 74.3667 128.278 72.8701 125.97 70.9735C123.662 69.077 121.926 66.8491 120.76 64.2899C119.595 61.7307 119.012 58.9773 119.012 56.0296ZM157.915 52.088C157.549 50.9683 156.978 49.9287 156.201 48.969C155.447 47.9864 154.498 47.141 153.356 46.4326C152.213 45.7014 150.888 45.1301 149.38 44.7189C147.872 44.3075 146.215 44.1019 144.41 44.1019C142.491 44.1019 140.743 44.319 139.166 44.7531C137.589 45.1873 136.207 45.7699 135.019 46.5012C133.831 47.2324 132.837 48.0778 132.037 49.0375C131.26 49.9972 130.689 51.014 130.323 52.088H157.915Z" fill="white"/>
<path d="M77.0379 92.9095H66.8925V35.9444H77.0379V39.749C77.929 39.132 78.9801 38.5493 80.1912 38.0009C81.4022 37.4525 82.7047 36.9727 84.0985 36.5614C85.4924 36.1501 86.9319 35.8302 88.4172 35.6017C89.9025 35.3503 91.3877 35.2247 92.873 35.2247C96.3005 35.2247 99.4423 35.7274 102.299 36.7328C105.178 37.7382 107.645 39.1549 109.702 40.9829C111.758 42.8109 113.358 45.0045 114.5 47.5637C115.666 50.1 116.249 52.9106 116.249 55.9953C116.249 59.2172 115.643 62.1306 114.432 64.7355C113.221 67.3175 111.541 69.534 109.394 71.3848C107.268 73.2128 104.732 74.6295 101.784 75.6349C98.8597 76.6175 95.6835 77.1087 92.256 77.1087C90.7936 77.1087 89.3426 77.0173 87.9031 76.8345C86.4864 76.6517 85.1154 76.4004 83.7901 76.0805C82.4876 75.7606 81.2537 75.3836 80.0884 74.9494C78.9459 74.4924 77.929 74.0011 77.0379 73.4756V92.9095ZM77.0379 63.6729C78.0661 64.4955 79.1515 65.1925 80.294 65.7637C81.4365 66.335 82.6019 66.8034 83.7901 67.169C84.9783 67.5346 86.1779 67.8088 87.3889 67.9916C88.6 68.1515 89.7768 68.2315 90.9193 68.2315C93.25 68.2315 95.3179 67.923 97.1231 67.3061C98.9511 66.6663 100.482 65.798 101.716 64.7012C102.973 63.6044 103.932 62.3134 104.595 60.8281C105.258 59.3429 105.589 57.7319 105.589 55.9953C105.589 54.373 105.258 52.842 104.595 51.4025C103.955 49.9629 103.018 48.7062 101.784 47.6322C100.573 46.5354 99.0996 45.6785 97.363 45.0616C95.6492 44.4218 93.7184 44.1019 91.5705 44.1019C90.1995 44.1019 88.8285 44.239 87.4575 44.5132C86.0865 44.7646 84.7612 45.1301 83.4816 45.61C82.2248 46.0899 81.0366 46.6725 79.917 47.358C78.8202 48.0435 77.8605 48.809 77.0379 49.6545V63.6729Z" fill="white"/>
<path d="M0 49.4488C0 45.4044 0.742625 41.7027 2.22788 38.3437C3.71313 34.9848 5.79248 32.1057 8.46593 29.7064C11.1622 27.2843 14.3841 25.4106 18.1315 24.0853C21.9017 22.76 26.0719 22.0974 30.6419 22.0974C35.189 22.0974 39.3477 22.76 43.118 24.0853C46.8882 25.4106 50.1101 27.2843 52.7835 29.7064C55.4798 32.1057 57.5706 34.9848 59.0559 38.3437C60.5411 41.7027 61.2837 45.4044 61.2837 49.4488C61.2837 53.5161 60.5411 57.2521 59.0559 60.6567C57.5706 64.0385 55.4798 66.9519 52.7835 69.3969C50.1101 71.8418 46.8882 73.7498 43.118 75.1208C39.3477 76.469 35.189 77.143 30.6419 77.143C26.0719 77.143 21.9017 76.469 18.1315 75.1208C14.3841 73.7498 11.1622 71.8418 8.46593 69.3969C5.79248 66.9519 3.71313 64.0385 2.22788 60.6567C0.742625 57.2521 0 53.5161 0 49.4488ZM10.8652 49.4488C10.8652 52.2137 11.3565 54.7043 12.339 56.9208C13.3444 59.1372 14.7268 61.0338 16.4863 62.6104C18.2686 64.1642 20.3594 65.3638 22.7586 66.2093C25.1807 67.0547 27.8085 67.4775 30.6419 67.4775C33.4753 67.4775 36.0916 67.0547 38.4908 66.2093C40.9129 65.3638 43.0037 64.1642 44.7632 62.6104C46.5226 61.0338 47.905 59.1372 48.9104 56.9208C49.9158 54.7043 50.4185 52.2137 50.4185 49.4488C50.4185 46.684 49.9158 44.2047 48.9104 42.0111C47.905 39.8175 46.5226 37.9667 44.7632 36.4586C43.0037 34.9276 40.9129 33.7623 38.4908 32.9625C36.0916 32.1628 33.4753 31.7629 30.6419 31.7629C27.8085 31.7629 25.1807 32.1628 22.7586 32.9625C20.3594 33.7623 18.2686 34.9276 16.4863 36.4586C14.7268 37.9667 13.3444 39.8175 12.339 42.0111C11.3565 44.2047 10.8652 46.684 10.8652 49.4488Z" fill="white"/>
</svg>
