<svg width="176" height="190" viewBox="0 0 176 190" fill="none" xmlns="http://www.w3.org/2000/svg">
<path d="M78.8583 0H175.367L109.017 189.268H12.5084L78.8583 0Z" fill="#81FF9D"/>
<path d="M0 92.2185C0 83.5958 1.58325 75.7039 4.74976 68.5427C7.91627 61.3816 12.3494 55.2434 18.0491 50.1283C23.7975 44.9644 30.6664 40.9698 38.6558 38.1443C46.6938 35.3188 55.5844 33.906 65.3275 33.906C75.0219 33.906 83.8881 35.3188 91.9262 38.1443C99.9643 40.9698 106.833 44.9644 112.533 50.1283C118.281 55.2434 122.739 61.3816 125.905 68.5427C129.072 75.7039 130.655 83.5958 130.655 92.2185C130.655 100.89 129.072 108.855 125.905 116.113C122.739 123.323 118.281 129.535 112.533 134.747C106.833 139.96 99.9643 144.027 91.9262 146.95C83.8881 149.825 75.0219 151.262 65.3275 151.262C55.5844 151.262 46.6938 149.825 38.6558 146.95C30.6664 144.027 23.7975 139.96 18.0491 134.747C12.3494 129.535 7.91627 123.323 4.74976 116.113C1.58325 108.855 0 100.89 0 92.2185ZM23.1642 92.2185C23.1642 98.1131 24.2116 103.423 26.3064 108.148C28.4499 112.874 31.3972 116.917 35.1483 120.279C38.9481 123.591 43.4055 126.149 48.5207 127.951C53.6845 129.754 59.2868 130.655 65.3275 130.655C71.3682 130.655 76.9462 129.754 82.0613 127.951C87.2251 126.149 91.6826 123.591 95.4337 120.279C99.1848 116.917 102.132 112.874 104.276 108.148C106.419 103.423 107.491 98.1131 107.491 92.2185C107.491 86.3239 106.419 81.0383 104.276 76.3616C102.132 71.6849 99.1848 67.7389 95.4337 64.5237C91.6826 61.2598 87.2251 58.7753 82.0613 57.0702C76.9462 55.3652 71.3682 54.5127 65.3275 54.5127C59.2868 54.5127 53.6845 55.3652 48.5207 57.0702C43.4055 58.7753 38.9481 61.2598 35.1483 64.5237C31.3972 67.7389 28.4499 71.6849 26.3064 76.3616C24.2116 81.0383 23.1642 86.3239 23.1642 92.2185Z" fill="#123318"/>
</svg>
