<svg width="549" height="102" viewBox="0 0 549 102" fill="none" xmlns="http://www.w3.org/2000/svg">
<path d="M496.392 0H549L512.832 101.164H460.224L496.392 0Z" fill="#81FF9D"/>
<path d="M449.611 23.8171H460.545V77.389H449.611V23.8171Z" fill="#123318"/>
<path d="M410.139 23.8171H421.655L447.567 77.389H436.154L431.869 68.3747H400.576L396.429 77.389H384.981L410.139 23.8171ZM427.585 59.4289L416 35.0936L404.723 59.4289H427.585Z" fill="#123318"/>
<path d="M346.378 44.5535H339.454V36.9444H346.378C346.378 34.2024 346.766 31.7689 347.543 29.6438C348.32 27.4959 349.44 25.6908 350.902 24.2284C352.387 22.7431 354.181 21.6121 356.283 20.8352C358.408 20.0582 360.796 19.6698 363.447 19.6698C365.298 19.6698 367.114 19.8526 368.896 20.2182C370.679 20.561 372.255 21.0637 373.626 21.7263L370.028 30.2608C369.479 29.9409 368.702 29.6438 367.697 29.3696C366.714 29.0954 365.629 28.9583 364.441 28.9583C362.11 28.9583 360.225 29.621 358.785 30.9463C357.369 32.2487 356.615 34.2481 356.523 36.9444H369.308V44.5535H356.523V77.3889H346.378V44.5535Z" fill="#123318"/>
<path d="M285.072 57.338C285.072 54.1162 285.678 51.2142 286.889 48.6322C288.1 46.0273 289.768 43.8108 291.893 41.9828C294.041 40.132 296.577 38.7153 299.502 37.7327C302.45 36.7273 305.637 36.2246 309.065 36.2246C310.527 36.2246 311.967 36.316 313.383 36.4988C314.823 36.6816 316.194 36.933 317.496 37.2529C318.822 37.5728 320.056 37.9612 321.198 38.4182C322.363 38.8524 323.392 39.3322 324.283 39.8578V20.5267H334.428V77.3889H324.283V73.5844C323.392 74.2013 322.341 74.784 321.129 75.3324C319.918 75.8808 318.616 76.3607 317.222 76.772C315.828 77.1833 314.377 77.5032 312.869 77.7317C311.384 77.983 309.91 78.1087 308.448 78.1087C305.02 78.1087 301.867 77.606 298.988 76.6006C296.132 75.5952 293.675 74.1785 291.619 72.3505C289.562 70.5225 287.951 68.3403 286.786 65.804C285.643 63.2448 285.072 60.4228 285.072 57.338ZM295.732 57.338C295.732 58.9604 296.052 60.4913 296.691 61.9309C297.354 63.3704 298.291 64.6386 299.502 65.7354C300.736 66.8094 302.21 67.6662 303.923 68.306C305.66 68.923 307.602 69.2315 309.75 69.2315C311.121 69.2315 312.492 69.1058 313.863 68.8544C315.234 68.5802 316.548 68.2032 317.805 67.7234C319.084 67.2435 320.273 66.6608 321.369 65.9753C322.489 65.2898 323.46 64.5244 324.283 63.6789V49.6604C323.255 48.8378 322.169 48.1409 321.027 47.5697C319.884 46.9984 318.719 46.53 317.531 46.1644C316.342 45.7988 315.143 45.536 313.932 45.3761C312.721 45.1933 311.544 45.1019 310.401 45.1019C308.071 45.1019 305.991 45.4218 304.163 46.0616C302.358 46.6785 300.827 47.5354 299.57 48.6322C298.337 49.729 297.388 51.02 296.726 52.5053C296.063 53.9905 295.732 55.6014 295.732 57.338Z" fill="#123318"/>
<path d="M230.142 23.8171H258.384C262.497 23.8171 266.062 24.2627 269.078 25.1539C272.094 26.045 274.596 27.336 276.584 29.0269C278.572 30.695 280.046 32.7401 281.006 35.1622C281.988 37.5843 282.48 40.3148 282.48 43.3539C282.48 46.2101 282 48.8493 281.04 51.2714C280.08 53.6935 278.606 55.7957 276.619 57.578C274.653 59.3375 272.163 60.7199 269.147 61.7253C266.13 62.7079 262.566 63.1991 258.453 63.1991L241.007 63.1649V77.389H230.142V23.8171ZM258.658 53.7735C260.715 53.7735 262.509 53.5336 264.04 53.0537C265.593 52.551 266.884 51.8541 267.913 50.963C268.964 50.049 269.741 48.9522 270.243 47.6726C270.769 46.3701 271.032 44.9305 271.032 43.3539C271.032 40.1777 269.992 37.7099 267.913 35.9505C265.856 34.1682 262.771 33.277 258.658 33.277H241.007V53.7735H258.658Z" fill="#123318"/>
<path d="M174.697 36.9444H184.842V40.3719C187.539 38.841 190.109 37.767 192.554 37.1501C195.022 36.5331 197.433 36.2247 199.786 36.2247C202.871 36.2247 205.727 36.6817 208.355 37.5957C210.983 38.4868 213.256 39.8235 215.176 41.6058C217.095 43.3881 218.592 45.616 219.666 48.2895C220.763 50.9401 221.311 54.0134 221.311 57.5095V77.389H211.2V59.1547C211.2 56.9382 210.88 54.9617 210.24 53.2251C209.623 51.4656 208.721 49.9918 207.532 48.8036C206.367 47.5926 204.939 46.6785 203.248 46.0616C201.58 45.4218 199.706 45.1019 197.627 45.1019C196.53 45.1019 195.399 45.2161 194.234 45.4446C193.091 45.6732 191.96 46.0045 190.841 46.4386C189.744 46.8499 188.681 47.3755 187.653 48.0153C186.625 48.6322 185.688 49.3406 184.842 50.1403V77.389H174.697V36.9444Z" fill="#123318"/>
<path d="M119.012 57.0296C119.012 54.2876 119.572 51.6713 120.692 49.1806C121.812 46.6671 123.422 44.4507 125.525 42.5313C127.627 40.6119 130.198 39.0809 133.237 37.9384C136.298 36.7959 139.772 36.2247 143.656 36.2247C147.518 36.2247 150.991 36.8073 154.076 37.9727C157.183 39.1152 159.811 40.6918 161.959 42.7026C164.13 44.7134 165.786 47.0784 166.929 49.7976C168.094 52.5167 168.677 55.4301 168.677 58.5377C168.677 58.9262 168.665 59.3489 168.643 59.8059C168.643 60.24 168.62 60.6399 168.574 61.0055H130.323C130.757 62.2166 131.454 63.3248 132.414 64.3302C133.397 65.3356 134.619 66.2039 136.081 66.9351C137.544 67.6663 139.235 68.2375 141.154 68.6488C143.073 69.0373 145.199 69.2315 147.529 69.2315C149.86 69.2315 152.179 68.9916 154.487 68.5117C156.795 68.009 159 67.3807 161.102 66.6266L164.53 74.3728C163.204 74.9897 161.856 75.5381 160.485 76.018C159.137 76.475 157.72 76.8634 156.235 77.1833C154.773 77.4804 153.23 77.7089 151.608 77.8688C150.008 78.0288 148.318 78.1087 146.535 78.1087C141.988 78.1087 138.001 77.5603 134.573 76.4635C131.146 75.3667 128.278 73.8701 125.97 71.9735C123.662 70.077 121.926 67.8491 120.76 65.2899C119.595 62.7307 119.012 59.9773 119.012 57.0296ZM157.915 53.088C157.549 51.9683 156.978 50.9287 156.201 49.969C155.447 48.9864 154.498 48.141 153.356 47.4326C152.213 46.7014 150.888 46.1301 149.38 45.7189C147.872 45.3075 146.215 45.1019 144.41 45.1019C142.491 45.1019 140.743 45.319 139.166 45.7531C137.589 46.1873 136.207 46.7699 135.019 47.5012C133.831 48.2324 132.837 49.0778 132.037 50.0375C131.26 50.9972 130.689 52.014 130.323 53.088H157.915Z" fill="#123318"/>
<path d="M77.0379 93.9095H66.8925V36.9444H77.0379V40.749C77.929 40.132 78.9801 39.5493 80.1912 39.0009C81.4022 38.4525 82.7047 37.9727 84.0985 37.5614C85.4924 37.1501 86.9319 36.8302 88.4172 36.6017C89.9025 36.3503 91.3877 36.2247 92.873 36.2247C96.3005 36.2247 99.4423 36.7274 102.299 37.7328C105.178 38.7382 107.645 40.1549 109.702 41.9829C111.758 43.8109 113.358 46.0045 114.5 48.5637C115.666 51.1 116.249 53.9106 116.249 56.9953C116.249 60.2172 115.643 63.1306 114.432 65.7355C113.221 68.3175 111.541 70.534 109.394 72.3848C107.268 74.2128 104.732 75.6295 101.784 76.6349C98.8597 77.6175 95.6835 78.1087 92.256 78.1087C90.7936 78.1087 89.3426 78.0173 87.9031 77.8345C86.4864 77.6517 85.1154 77.4004 83.7901 77.0805C82.4876 76.7606 81.2537 76.3836 80.0884 75.9494C78.9459 75.4924 77.929 75.0011 77.0379 74.4756V93.9095ZM77.0379 64.6729C78.0661 65.4955 79.1515 66.1925 80.294 66.7637C81.4365 67.335 82.6019 67.8034 83.7901 68.169C84.9783 68.5346 86.1779 68.8088 87.3889 68.9916C88.6 69.1515 89.7768 69.2315 90.9193 69.2315C93.25 69.2315 95.3179 68.923 97.1231 68.3061C98.9511 67.6663 100.482 66.798 101.716 65.7012C102.973 64.6044 103.932 63.3134 104.595 61.8281C105.258 60.3429 105.589 58.7319 105.589 56.9953C105.589 55.373 105.258 53.842 104.595 52.4025C103.955 50.9629 103.018 49.7062 101.784 48.6322C100.573 47.5354 99.0996 46.6785 97.363 46.0616C95.6492 45.4218 93.7184 45.1019 91.5705 45.1019C90.1995 45.1019 88.8285 45.239 87.4575 45.5132C86.0865 45.7646 84.7612 46.1301 83.4816 46.61C82.2248 47.0899 81.0366 47.6725 79.917 48.358C78.8202 49.0435 77.8605 49.809 77.0379 50.6545V64.6729Z" fill="#123318"/>
<path d="M0 50.4488C0 46.4044 0.742625 42.7027 2.22788 39.3437C3.71313 35.9848 5.79248 33.1057 8.46593 30.7064C11.1622 28.2843 14.3841 26.4106 18.1315 25.0853C21.9017 23.76 26.0719 23.0974 30.6419 23.0974C35.189 23.0974 39.3477 23.76 43.118 25.0853C46.8882 26.4106 50.1101 28.2843 52.7835 30.7064C55.4798 33.1057 57.5706 35.9848 59.0559 39.3437C60.5411 42.7027 61.2837 46.4044 61.2837 50.4488C61.2837 54.5161 60.5411 58.2521 59.0559 61.6567C57.5706 65.0385 55.4798 67.9519 52.7835 70.3969C50.1101 72.8418 46.8882 74.7498 43.118 76.1208C39.3477 77.469 35.189 78.143 30.6419 78.143C26.0719 78.143 21.9017 77.469 18.1315 76.1208C14.3841 74.7498 11.1622 72.8418 8.46593 70.3969C5.79248 67.9519 3.71313 65.0385 2.22788 61.6567C0.742625 58.2521 0 54.5161 0 50.4488ZM10.8652 50.4488C10.8652 53.2137 11.3565 55.7043 12.339 57.9208C13.3444 60.1372 14.7268 62.0338 16.4863 63.6104C18.2686 65.1642 20.3594 66.3638 22.7586 67.2093C25.1807 68.0547 27.8085 68.4775 30.6419 68.4775C33.4753 68.4775 36.0916 68.0547 38.4908 67.2093C40.9129 66.3638 43.0037 65.1642 44.7632 63.6104C46.5226 62.0338 47.905 60.1372 48.9104 57.9208C49.9158 55.7043 50.4185 53.2137 50.4185 50.4488C50.4185 47.684 49.9158 45.2047 48.9104 43.0111C47.905 40.8175 46.5226 38.9667 44.7632 37.4586C43.0037 35.9276 40.9129 34.7623 38.4908 33.9625C36.0916 33.1628 33.4753 32.7629 30.6419 32.7629C27.8085 32.7629 25.1807 33.1628 22.7586 33.9625C20.3594 34.7623 18.2686 35.9276 16.4863 37.4586C14.7268 38.9667 13.3444 40.8175 12.339 43.0111C11.3565 45.2047 10.8652 47.684 10.8652 50.4488Z" fill="#123318"/>
</svg>
